<svg width="148" height="148" fill="none" xmlns="http://www.w3.org/2000/svg"><path d="M49.28 81.203v17.81a49.56 49.56 0 0035.027-14.57A49.805 49.805 0 0098.841 49.33H81.125a31.963 31.963 0 01-9.345 22.54 31.806 31.806 0 01-22.5 9.333zM49.28 130.281a31.523 31.523 0 01-21.955-9.463 31.68 31.68 0 01-9.046-22.173 31.682 31.682 0 019.046-22.174 31.527 31.527 0 0121.955-9.463V49.34a49.148 49.148 0 00-34.817 14.399A49.391 49.391 0 000 98.599a49.393 49.393 0 0014.364 34.903A49.151 49.151 0 0049.139 148h.14v-17.719zM49.28 130.282v17.668a49.15 49.15 0 0034.796-14.449A49.39 49.39 0 0098.49 98.62H80.844a31.71 31.71 0 01-9.247 22.378 31.554 31.554 0 01-22.317 9.284zM49.28 31.652V49.33a49.149 49.149 0 0034.796-14.448A49.391 49.391 0 0098.49 0H80.844a31.711 31.711 0 01-9.25 22.372 31.555 31.555 0 01-22.314 9.28zM98.79 31.652V49.33a49.15 49.15 0 0034.797-14.448A49.394 49.394 0 00148 0h-17.665a31.717 31.717 0 01-9.243 22.365 31.556 31.556 0 01-22.302 9.287z" fill="#fff"/></svg>